<svg xmlns="http://www.w3.org/2000/svg" width="32" height="56" viewBox="0 0 32 56"><g><g><path fill="#fff" d="M17.08 24.56c-7.08-1.8-9.36-3.76-9.36-6.68 0-3.36 3.16-5.72 8.4-5.72 5.52 0 7.6 2.64 7.76 6.56h6.84c-.2-5.36-3.48-10.28-9.96-11.88V0h-9.32v6.76C5.4 8.04.56 11.96.56 18c0 7.16 5.96 10.76 14.64 12.84 7.8 1.84 9.36 4.6 9.36 7.48 0 2.12-1.56 5.56-8.4 5.56-6.4 0-8.92-2.88-9.28-6.56H0c.4 6.8 5.44 10.64 11.44 11.88V56h9.36v-6.68c6.08-1.16 10.88-4.64 10.92-11.08-.04-8.8-7.6-11.84-14.64-13.68z"/></g></g></svg>