<svg xmlns="http://www.w3.org/2000/svg" width="56" height="39" viewBox="0 0 56 39"><g><g><path fill="#fff" d="M39.455 19.09c0 6.314-5.142 11.455-11.455 11.455s-11.455-5.141-11.455-11.454c0-6.313 5.142-11.455 11.455-11.455s11.455 5.142 11.455 11.455zM28 12.728a6.366 6.366 0 0 0-6.364 6.364A6.366 6.366 0 0 0 28 25.455a6.366 6.366 0 0 0 6.364-6.364A6.366 6.366 0 0 0 28 12.727m28 6.364c-4.404 11.174-15.273 19.09-28 19.09S4.404 30.266 0 19.092C4.404 7.916 15.273 0 28 0s23.596 7.916 28 19.09zm-28-14c-9.647 0-18.25 5.422-22.45 14 4.2 8.578 12.803 14 22.45 14 9.647 0 18.25-5.422 22.45-14-4.2-8.578-12.803-14-22.45-14"/></g></g></svg>