<svg xmlns="http://www.w3.org/2000/svg" width="17" height="16" viewBox="0 0 17 16"><g><g><path fill="#363b41" d="M13 2.77a.96.96 0 1 0 0 1.922.96.96 0 0 0 0-1.921zm-4.271 7.897a2.666 2.666 0 1 1 0-5.334 2.666 2.666 0 1 1 0 5.334zm0-6.775a4.108 4.108 0 1 0-.001 8.215 4.108 4.108 0 0 0 0-8.215zm0-2.452c2.135 0 2.39.01 3.233.047.78.037 1.203.166 1.485.277.374.145.64.318.92.597.28.28.454.546.598.921.11.281.24.705.275 1.485.038.844.047 1.097.047 3.233s-.01 2.39-.05 3.233c-.04.78-.17 1.204-.28 1.485-.15.375-.32.64-.6.921-.278.28-.548.453-.92.598-.28.109-.71.24-1.49.275-.848.038-1.098.047-3.238.047-2.141 0-2.391-.01-3.24-.05-.78-.04-1.21-.17-1.49-.28-.38-.15-.64-.32-.92-.6a2.43 2.43 0 0 1-.6-.92c-.11-.28-.24-.71-.28-1.49-.03-.84-.04-1.099-.04-3.229s.01-2.39.04-3.24c.04-.78.17-1.21.28-1.49.14-.38.32-.64.6-.92.28-.28.54-.46.92-.6.28-.11.7-.24 1.48-.28.85-.03 1.1-.04 3.24-.04l.03.02zm0-1.44C6.555 0 6.284.01 5.43.048c-.852.04-1.432.174-1.942.372a3.918 3.918 0 0 0-1.418.923c-.444.444-.72.89-.922 1.417C.95 3.27.816 3.85.777 4.702.737 5.555.729 5.827.729 8s.01 2.445.048 3.298c.04.851.174 1.432.372 1.942.204.525.478.973.922 1.417.445.444.89.72 1.418.923.51.197 1.09.333 1.942.372.853.04 1.124.048 3.298.048 2.173 0 2.444-.01 3.298-.048.85-.04 1.432-.175 1.942-.372a3.932 3.932 0 0 0 1.417-.923c.444-.444.72-.89.923-1.417.197-.51.332-1.09.372-1.942.04-.853.048-1.125.048-3.298s-.01-2.445-.048-3.298c-.04-.851-.175-1.433-.372-1.942a3.926 3.926 0 0 0-.923-1.417A3.898 3.898 0 0 0 13.969.42c-.51-.198-1.091-.333-1.942-.372C11.173.008 10.902 0 8.729 0z"/></g></g></svg>