<svg xmlns="http://www.w3.org/2000/svg" width="56" height="56" viewBox="0 0 56 56"><g><g><path fill="#fff" d="M28 25.2a4.194 4.194 0 0 1-4.2-4.2c0-2.324 1.876-4.2 4.2-4.2 2.324 0 4.2 1.876 4.2 4.2 0 2.324-1.876 4.2-4.2 4.2zm0-14a9.775 9.775 0 0 0-9.8 9.8c0 5.432 4.368 9.8 9.8 9.8s9.8-4.368 9.8-9.8-4.368-9.8-9.8-9.8zm17.808 30.324C41.804 36.652 32.088 35 28 35c-4.088 0-13.804 1.652-17.808 6.524C7.336 37.772 5.6 33.096 5.6 28 5.6 15.652 15.652 5.6 28 5.6c12.348 0 22.4 10.052 22.4 22.4 0 5.096-1.736 9.772-4.592 13.524zm-31.612 4.06C15.4 43.064 22.736 40.6 28 40.6c5.264 0 12.628 2.464 13.804 4.984A22.1 22.1 0 0 1 28 50.4a22.1 22.1 0 0 1-13.804-4.816zM28 0C12.544 0 0 12.544 0 28s12.544 28 28 28 28-12.544 28-28S43.456 0 28 0z"/></g></g></svg>