<svg xmlns="http://www.w3.org/2000/svg" width="320" height="109" viewBox="0 0 320 109"><g><g><g><path fill="#49b858" d="M110.693 69.707a175.92 175.92 0 0 1-3.478 8.623c-1.5 3.458-3.12 6.875-4.888 10.204-1.476 2.78-3.072 5.547-4.853 8.144a42.763 42.763 0 0 1-2.434 3.242c-.594.71-1.229 1.41-1.913 2.035-.398.364-.86.75-1.333 1.012-.103.058-.44.227-.564.205a.247.247 0 0 1-.086-.03c-.118-.084-.375-.897-.428-1.045-.669-1.878-1.255-3.79-1.812-5.704-.62-2.13-1.203-4.271-1.788-6.412-.303-1.11-.606-2.22-.913-3.328-.816-2.943-1.659-5.883-2.62-8.783-.891-2.694-1.89-5.385-3.113-7.947-2.507-5.25-6.427-10.829-12.861-10.829h-.434c-6.272 0-10.133 5.661-12.571 10.743-1.23 2.563-2.243 5.253-3.154 7.946-.984 2.908-1.857 5.857-2.704 8.809a942.847 942.847 0 0 0-.919 3.231c-1.16 4.096-2.307 8.259-3.754 12.262-.076.208-.292.951-.463 1.078a.245.245 0 0 1-.111.041c-.41.062-1.205-.513-1.49-.738-.702-.555-1.35-1.241-1.938-1.913-1.027-1.177-1.97-2.452-2.861-3.735-1.78-2.561-3.373-5.298-4.845-8.047a138.83 138.83 0 0 1-4.86-10.09c-3.406-7.828-6.28-16.026-8.384-24.302-.933-3.668-1.722-7.39-2.28-11.134-.473-3.162-.795-6.4-.795-9.598 0-6.771 2.342-13.64 6.629-18.9C27.602 8.702 34.502 5.44 42.304 5.44c5.021 0 10.867 2.577 15.034 5.225.975.62 1.934 1.387 2.852 2.093.403.309.804.62 1.21.924 1.566 1.174 3.164 2.286 4.852 3.28.976.574 1.953 1.14 2.998 1.583a33.956 33.956 0 0 0 13.333 2.707c1.899 0 3.816-.134 5.693-.42.541-.081 1.081-.177 1.616-.29.183-.04.428-.084.61-.143.387-.099 1.033-.327.975-.818-.059-.49-.704-.55-1.096-.556a72.124 72.124 0 0 1-4.373-.384c-3.057-.354-6.152-.865-9.128-1.653a26.112 26.112 0 0 1-1.497-.447 28.708 28.708 0 0 1-3.065-1.199c-.23-.107-1.016-.483-1.363-.737.444-.404 1.693-1.182 2.016-1.382a52.666 52.666 0 0 1 2.296-1.353C80.1 9.202 86.873 5.44 92.48 5.44c7.802 0 14.703 3.262 19.63 9.307 2.083 2.556 3.7 5.484 4.816 8.584a30.597 30.597 0 0 1 1.812 10.316c0 3.123-.327 6.29-.798 9.375-.565 3.7-1.36 7.376-2.294 11l-.081.313-.032.122-.08.307-.009.033-.1.375-.005.02-.097.363-.012.047-.082.3-.015.058-.012.042-.086.315-.021.076-.092.33-.003.01-.002.01c-.101.362-.203.724-.307 1.086l-.035.123-.008.026-.07.246-.017.056-.005.02-.21.717-.025.084-.084.282-.016.055-.006.019-.074.246-.016.054-.036.12-.096.319-.004.013-.099.322-.037.122-.01.035-.077.246-.04.129-.07.224-.038.125-.095.303-.033.103-.085.267-.015.047-.009.03-.104.325-.016.05-.116.36-.001.003-.102.315-.039.117c-.074.229-.15.458-.225.686l-.01.031-.024.07-.096.287-.028.085-.081.24-.028.083-.013.039-.083.244-.008.025-.06.177-.015.042-.08.237-.003.006-.084.244-.015.043-.061.178-.008.022-.084.244-.01.026-.015.045-.092.262-.026.073-.028.08-.085.243-.02.057-.066.186-.027.075-.06.168-.087.242-.013.037-.058.16-.016.046-.082.226-.005.016-.088.242-.004.01-.075.206-.01.026-.088.242-.006.016-.037.099-.078.21-.025.07-.033.088-.09.241zM67.39 9.715c-.365-.065-1.028-.39-1.338-.537-.254-.122-4.773-2.565-5.025-2.694C55.397 3.393 48.728 0 42.304 0c-8.889 0-17.047 3.66-22.968 10.288-5.736 6.422-8.73 14.767-8.73 23.359 0 3.41.322 6.85.814 10.222.57 3.911 1.381 7.796 2.348 11.627 2.183 8.643 5.194 17.184 8.75 25.356 1.56 3.584 3.243 7.125 5.09 10.571 1.56 2.91 3.25 5.788 5.136 8.5 2.237 3.219 6.416 8.717 10.818 8.717 2.887 0 4.707-2.16 5.627-4.704 1.493-4.127 2.677-8.408 3.873-12.63a416.525 416.525 0 0 1 1.975-6.825c.756-2.505 1.557-5.005 2.468-7.458.81-2.182 1.721-4.378 2.831-6.425 1.326-2.446 3.674-6.064 6.84-6.064h.433c3.865 0 6.523 4.74 7.952 7.733 1.18 2.472 2.133 5.089 2.983 7.69.943 2.885 1.772 5.809 2.579 8.733l.748 2.73c1.14 4.178 2.266 8.425 3.72 12.504.9 2.526 2.694 4.68 5.558 4.681 4.4.001 8.602-5.629 10.811-8.849 1.882-2.743 3.571-5.648 5.133-8.584 1.852-3.482 3.543-7.058 5.112-10.674a180.626 180.626 0 0 0 5.627-14.639l.055-.166.056-.166.055-.167.006-.018.086-.26.017-.054.055-.167.054-.166.054-.167.054-.167.054-.166.054-.167.051-.161.002-.005.053-.167.058-.183.084-.263.016-.05.001-.005.053-.167.052-.167.048-.155.004-.012.052-.167.04-.13.012-.037.051-.167.052-.168.009-.03.042-.137.051-.168.008-.028.04-.129.003-.01.05-.167.018-.06.055-.184.082-.272.042-.14.083-.282.01-.031.01-.036.094-.322.004-.014.01-.03.04-.138.048-.168.012-.04.031-.109.101-.352.001-.002.096-.337.018-.064.014-.048.062-.223.038-.133.01-.036.047-.168.046-.168.01-.032.007-.03.095-.342.009-.032.018-.069.084-.306.008-.03.006-.023.102-.377.002-.008c.069-.257.137-.515.204-.772l.009-.033.001-.005.101-.388.005-.02.103-.397c.968-3.785 1.784-7.625 2.36-11.49.491-3.296.819-6.662.819-9.997 0-8.592-2.997-16.937-8.732-23.358C109.527 3.66 101.367 0 92.48 0c-6.83 0-14.006 3.887-19.843 7.108-.547.301-1.094.603-1.643.9-.745.403-1.498.804-2.262 1.169-.311.149-.974.472-1.34.538z"/></g><g><path fill="#49b858" d="M277.098 55.72l4.739 11.454h-9.676l4.937-11.453zM161.92 49.607c2.408 0 4.731.644 6.71 2.036 3.705 2.603 5.215 7.041 5.215 11.424 0 4.585-1.633 9.208-5.662 11.743-1.857 1.168-3.982 1.716-6.168 1.716-1.384 0-2.832-.212-4.204-.492v-25.83c1.326-.366 2.747-.597 4.109-.597zm141.055 26.68V52.995c0-1.735-.027-4.35-1.494-5.561-.955-.789-2.322-.881-3.51-.881h-5.003v2.334h1.646c.671 0 1.423.108 1.905.622.739.786.766 2.476.766 3.486v26.583H320v-3.292zm-19.623-5.82l1.03 2.678c1.527 3.968 4.417 6.675 8.794 6.675.678 0 1.465-.074 2.116-.27l.49-.147v-2.098l-.625-.056c-.694-.063-1.389-.205-1.995-.56-1.33-.782-2.148-2.693-2.707-4.053L279.73 46.553h-2.355l-14.01 33.025h3.652l3.836-9.111h12.5zm-15.385-20.62v-3.293H244.98c-3.051 0-4.764 1.5-4.764 4.524v4.283h2.334v-.687c0-3.525 1.944-4.827 5.307-4.827h3.63v29.733h5.69V49.846zM234.94 69.027l-15.562-19.34c-1.816-2.258-4.129-3.134-7.01-3.134h-3.804v2.334h1.167c2.842 0 3.629 1.466 3.629 4.108v26.583h3.293V55.667l19.604 24.391h1.977V46.553h-3.294zM199.23 49.846c3.363 0 5.307 1.302 5.307 4.827v.687h2.334v-4.283c0-3.024-1.713-4.524-4.764-4.524H180.99v2.334h1.647c.67 0 1.423.108 1.904.622.739.786.765 2.476.765 3.486v26.583h17.233c2.006 0 3.545-.957 4.242-2.847l1.943-5.274-2.297-.575-.216.575c-1.387 3.697-3.648 4.829-7.509 4.829h-7.705V64.233h12.948v-3.294h-12.948V49.846zm-51.57-3.293v2.334h1.647c.67 0 1.423.108 1.905.622.738.786.765 2.476.765 3.486v26.583h10.182c5.783 0 11.651-1.661 15.22-6.508 2.181-2.961 3.068-6.557 3.068-10.196 0-3.403-.76-6.763-2.758-9.568-3.79-5.32-10.62-6.753-16.777-6.753h-13.251z"/></g><g><path fill="#4d7ca7" d="M224.87 90.685v7.82a8.517 8.517 0 0 0 1.788.217c.877 0 1.844-.367 2.53-.905 1.02-.8 1.46-1.944 1.46-3.222 0-1.279-.44-2.422-1.46-3.223-.686-.538-1.653-.904-2.53-.904a8.54 8.54 0 0 0-1.788.217zm-28.078 7.625c0-2.696-.654-6.328-3.287-7.725a4.67 4.67 0 0 0-2.216-.53c-.777 0-1.53.164-2.217.53-2.633 1.397-3.287 5.03-3.287 7.725 0 2.697.654 6.329 3.287 7.727a4.68 4.68 0 0 0 2.217.53c.777 0 1.528-.165 2.216-.53 2.633-1.398 3.287-5.03 3.287-7.727zm-25.32-7.625v6.856a8.483 8.483 0 0 0 1.788.217c.859 0 1.844-.352 2.541-.843.93-.657 1.449-1.585 1.449-2.733 0-1.182-.497-2.162-1.452-2.856-.694-.503-1.675-.858-2.538-.858-.57 0-1.216.088-1.787.217zm53.398 16.986h-3.03V92.53c0-.62-.02-1.6-.472-2.082-.3-.321-.758-.394-1.179-.394h-.827V88.95h7.433c3.783 0 7.159 1.431 7.159 5.783 0 2.011-.819 3.638-2.605 4.612-1.09.595-2.487.894-3.728.894h-2.75zm-21.747-8.122v-7.018c0-.62-.02-1.6-.472-2.082-.3-.321-.758-.394-1.179-.394h-.827V88.95h2.754c.649 0 1.416.048 1.94.48.804.664.814 2.151.814 3.1v7.845c0 1.612.206 3.68 1.44 4.864.85.816 2.013 1.052 3.155 1.052 1.31 0 2.747-.208 3.743-1.138 1.412-1.318 1.568-3.803 1.568-5.604V88.95h1.655v10.6c0 5.416-1.412 8.396-7.296 8.396-5.71 0-7.295-3.109-7.295-8.397zm-20.644-1.239c0-3.024 1.045-6.115 3.446-8.071 1.534-1.251 3.395-1.84 5.364-1.84 1.968 0 3.83.589 5.363 1.84 2.4 1.956 3.446 5.047 3.446 8.071 0 3.025-1.045 6.116-3.446 8.072-1.534 1.25-3.395 1.839-5.363 1.839-1.97 0-3.83-.588-5.364-1.839-2.4-1.956-3.446-5.047-3.446-8.072zm-9.515.965h-1.491v8.395h-3.031V92.53c0-.62-.02-1.6-.471-2.081-.302-.321-.758-.394-1.18-.394h-.827V88.95h7.434c3.387 0 7.158 1.117 7.158 5.232 0 2.773-1.81 4.242-4.248 4.862l2.695 4.491c.417.695.902 1.447 1.472 2.028.375.383.787.686 1.3.855.238.079.484.124.733.15l.25.025v.972l-.154.076c-.444.223-1.282.305-1.775.305-.467 0-.928-.055-1.375-.196-.757-.24-1.37-.696-1.915-1.264-.74-.772-1.362-1.749-1.903-2.668l-2.672-4.543zm-11.679 6.437v-4.622c0-.887.149-1.722.804-2.374.976-.97 2.719-1.123 4.015-1.123h.277v1.104h-.277c-.477 0-1.05.068-1.382.453-.39.454-.406 1.32-.406 1.885v5.33l-.132.081c-2.162 1.322-4.375 1.775-6.888 1.775-5.734 0-9.635-4.611-9.635-10.186 0-5.25 3.31-9.635 8.81-9.635 1.425 0 2.913.181 4.26.665.932.333 1.92.863 2.559 1.638.767.93.751 2.724.751 3.892v.276h-1.05l-.048-.217c-.666-3.06-2.498-4.6-5.647-4.6-4.51 0-6.33 4.001-6.33 7.98 0 2.992.634 6.688 3.707 8.029.826.36 1.726.503 2.623.503 1.442 0 2.713-.2 3.989-.854z"/></g><g><path fill="#4d7ca7" d="M148.842 42.593l.003.003c.113.107.076.282-.012.454a2.076 2.076 0 0 1-.295.415l-.02.02c-19.128 20.155-45.32 34.63-72.813 40.193-25.563 5.17-52.25 2.637-75.427-10.203L0 73.32l.302.1c28.148 9.37 54.548 10.211 78.153 5.338 27.478-5.673 51.168-19.088 69.417-35.802.115-.105.35-.304.574-.39.148-.059.292-.068.396.027z"/></g><g><path fill="#4d7ca7" d="M304.488 20.578h12.124c1.993 0 2.42 1.139 2.42 2.277v2.135h-.57c0-2.277-1.28-3.273-3.557-3.273h-5.294v7.4h7.684v1.138h-7.684v7.97h4.98c2.562 0 3.986-.854 4.839-3.131l.57.142-.997 2.704c-.313.854-.996 1.423-2.135 1.423h-9.82v-15.37c0-1.707-.283-2.845-1.991-2.845h-.57zm-5.693 0h2.561v15.37c0 1.708.285 2.846 1.993 2.846h.57v.57h-2.563c-1.992 0-2.56-.57-2.56-3.416zM280.01 39.363v-15.37c0-1.707-.57-2.845-2.562-2.845h-.284v-.57h1.85c1.85 0 2.988.655 3.842 1.708l9.962 12.381V20.578h1.138v19.07h-.569l-12.239-15.227v14.942zm-9.108-3.842l-2.847-4.839h-1.992v8.681h-2.56v-15.37c0-1.707-.286-2.845-1.993-2.845h-.57v-.57h7.4c2.42 0 7.116.57 7.116 5.124 0 3.273-2.562 4.411-4.554 4.838l2.989 4.98c1.451 2.42 2.419 3.132 3.842 3.274v.57c-.285.142-.996.284-1.708.284-1.992 0-3.273-.996-5.123-4.127zm1.708-9.82c0-2.988-2.846-4.127-4.412-4.127-.711 0-1.565.143-2.135.285v7.543c.57.142 1.424.284 2.135.284 1.566 0 4.412-1.138 4.412-3.984zm-28.463 5.55v-7.257c0-1.708-.284-2.846-1.992-2.846h-.569v-.57h2.561c1.993 0 2.562.57 2.562 3.416v8.111c0 3.985 1.28 6.404 5.038 6.404 4.354 0 5.778-2.277 5.778-7.257V20.578h1.138v10.674c0 5.55-1.423 8.396-7.257 8.396-5.55 0-7.259-2.846-7.259-8.396zm-43.12 8.112v-15.37c0-1.707-.57-2.845-2.561-2.845h-.285v-.57h1.85c1.85 0 2.989.655 3.842 1.708l9.962 12.381V20.578h1.139v19.07h-.57l-12.238-15.227v14.942zm-19.212-18.785h12.125c1.992 0 2.42 1.139 2.42 2.277v2.135h-.57c0-2.277-1.28-3.273-3.558-3.273h-5.294v7.4h7.685v1.138h-7.685v7.97h4.981c2.562 0 3.985-.854 4.839-3.131l.57.142-.997 2.704c-.313.854-.996 1.423-2.135 1.423h-9.819v-15.37c0-1.707-.285-2.845-1.992-2.845h-.57zm-10.104 17.647h10.104v1.138H169.15v-15.37c0-1.707-.285-2.845-1.993-2.845h-.57v-.57h2.563c1.992 0 2.561.57 2.561 3.416zm60.055-17.647c2.99 0 7.685.57 7.685 4.981 0 1.708-1.139 3.273-3.7 4.127 3.7.57 4.697 2.277 4.697 4.554 0 4.27-4.27 5.123-7.828 5.123h-5.692v-15.37c0-1.707-.285-2.845-1.993-2.845h-.569v-.57zm.427 8.681c2.278 0 4.554-1.28 4.554-3.842 0-2.704-2.846-3.843-5.123-3.843-.712 0-1.566.143-2.134.285v7.4zm-2.703 1.139v7.57c.853.257 1.85.4 2.703.4 3.416 0 5.408-1.424 5.408-3.985 0-2.562-1.85-3.985-5.408-3.985zm-72.152-9.25c-4.839 0-6.831 4.269-6.831 8.538 0 6.831 3.13 9.108 6.83 9.108 2.022 0 3.302-.398 4.412-.996v-4.952c0-1.566.428-3.33 4.697-3.33v.569c-1.85 0-2.135 1.025-2.135 2.704v5.35c-2.05 1.253-4.213 1.794-6.973 1.794-5.693 0-9.677-4.555-9.677-10.247 0-5.408 3.415-9.677 8.823-9.677 3.415 0 5.806 1.025 6.83 2.277.712.854.712 2.561.712 3.842h-.569c-.712-3.273-2.704-4.98-6.12-4.98z"/></g></g></g></svg>